<svg id="generic-bg" xmlns="http://www.w3.org/2000/svg" viewBox="0 0 1451.2 653.4"><style>.st0{fill:#e1e4e8}</style><title>simple-codelines</title><path class="st0" d="M102 499.5c-.8 0-1.5-.7-1.5-1.5s.7-1.5 1.5-1.5c10.3 0 18.7-8.4 18.7-18.7 0-.8.7-1.5 1.5-1.5s1.5.7 1.5 1.5c0 11.9-9.8 21.7-21.7 21.7zM44.2 275.4H23.7c-.8 0-1.5-.7-1.5-1.5s.7-1.5 1.5-1.5h20.5c9.5 0 17.3-7.7 17.3-17.3v-64.2c0-11.2 9.1-20.3 20.3-20.3h25.6c9.5 0 17.3-7.7 17.3-17.3V3.2c0-.8.7-1.5 1.5-1.5s1.5.7 1.5 1.5v150.2c0 11.2-9.1 20.3-20.3 20.3H81.8c-9.5 0-17.3 7.7-17.3 17.3v64.2c0 11.2-9.1 20.2-20.3 20.2zM223.6 92.3h-56.3c-.8 0-1.5-.7-1.5-1.5s.7-1.5 1.5-1.5h56.3c.8 0 1.5.7 1.5 1.5s-.6 1.5-1.5 1.5z"/><path class="st0" d="M98.7 112.6H54.6c-.8 0-1.5-.7-1.5-1.5s.7-1.5 1.5-1.5h44.1c.8 0 1.5.7 1.5 1.5s-.6 1.5-1.5 1.5zM154.5 112.6h-12.8c-.8 0-1.5-.7-1.5-1.5s.7-1.5 1.5-1.5h12.8c.8 0 1.5.7 1.5 1.5s-.6 1.5-1.5 1.5zM51.3 51.4H8.1c-.8 0-1.5-.7-1.5-1.5s.7-1.5 1.5-1.5h43.2c.8 0 1.5.7 1.5 1.5s-.7 1.5-1.5 1.5zM89.6 51.4H67.4c-.8 0-1.5-.7-1.5-1.5s.7-1.5 1.5-1.5h22.2c.8 0 1.5.7 1.5 1.5s-.7 1.5-1.5 1.5zM180.7 51.4h-27.9c-.8 0-1.5-.7-1.5-1.5s.7-1.5 1.5-1.5h27.9c0 .2-6.9 1.6 0 3zM218.5 51.4H199c-.8 0-1.5-.7-1.5-1.5s.7-1.5 1.5-1.5h19.5c0 .2-6.9 1.6 0 3zM310.3 51.4H296c-.8 0-1.5-.7-1.5-1.5s.7-1.5 1.5-1.5h14.3c.8 0 1.5.7 1.5 1.5s-.6 1.5-1.5 1.5zM361.1 51.4h-33.7c-.8 0-1.5-.7-1.5-1.5s.7-1.5 1.5-1.5h33.7c.8 0 1.5.7 1.5 1.5s-.7 1.5-1.5 1.5zM77.1 71.7H61.6c-.8 0-1.5-.7-1.5-1.5s.7-1.5 1.5-1.5h15.5c.8 0 1.5.7 1.5 1.5s-.7 1.5-1.5 1.5zM110.4 153.4H91.9c-.8 0-1.5-.7-1.5-1.5s.7-1.5 1.5-1.5h18.5c.8 0 1.5.7 1.5 1.5s-.6 1.5-1.5 1.5zM88.4 173.7H35.7c-.8 0-1.5-.7-1.5-1.5s.7-1.5 1.5-1.5h52.7c.8 0 1.5.7 1.5 1.5s-.7 1.5-1.5 1.5zM106.3 132.9H91.1c-.8 0-1.5-.7-1.5-1.5s.7-1.5 1.5-1.5h15.2c.8 0 1.5.7 1.5 1.5s-.7 1.5-1.5 1.5zM45.6 234.8H7.1c-.8 0-1.5-.7-1.5-1.5s.7-1.5 1.5-1.5h38.6c.8 0 1.5.7 1.5 1.5-.1.9-.7 1.6-1.6 1.5zM101.7 234.8h-22c-.8 0-1.5-.7-1.5-1.5s.7-1.5 1.5-1.5h22c.8 0 1.5.7 1.5 1.5s-.7 1.5-1.5 1.5zM195.1 234.8h-16.8c-.8 0-1.5-.7-1.5-1.5s.7-1.5 1.5-1.5h16.8c.8 0 1.5.7 1.5 1.5s-.6 1.5-1.5 1.5zM250.7 234.8h-38.8c-.8 0-1.5-.7-1.5-1.5s.7-1.5 1.5-1.5h38.8c.8 0 1.5.6 1.5 1.5 0 .8-.6 1.5-1.5 1.5zM165.7 255.2h-23.3c-.8 0-1.5-.7-1.5-1.5s.7-1.5 1.5-1.5h23.3c.8 0 1.5.7 1.5 1.5s-.7 1.5-1.5 1.5zM127.9 194h-15.7c-.8 0-1.5-.7-1.5-1.5s.7-1.5 1.5-1.5h15.7c.8 0 1.5.7 1.5 1.5s-.7 1.5-1.5 1.5zM191.6 194h-45.3c-.8 0-1.5-.7-1.5-1.5s.7-1.5 1.5-1.5h45.3c.8 0 1.5.7 1.5 1.5s-.6 1.5-1.5 1.5zM229.8 194h-23.5c-.8 0-1.5-.7-1.5-1.5s.7-1.5 1.5-1.5h23.5c.8 0 1.5.7 1.5 1.5s-.7 1.5-1.5 1.5zM138.2 214.3H79.6c-.8 0-1.5-.7-1.5-1.5s.7-1.5 1.5-1.5h58.5c.8 0 1.5.7 1.5 1.5s-.6 1.5-1.4 1.5zM210.3 214.3h-42.9c-.8 0-1.5-.7-1.5-1.5s.7-1.5 1.5-1.5h42.9c.8 0 1.5.7 1.5 1.5s-.7 1.5-1.5 1.5zM281.8 214.3h-56.4c-.8 0-1.5-.7-1.5-1.5s.7-1.5 1.5-1.5h56.4c.8 0 1.5.7 1.5 1.5s-.7 1.5-1.5 1.5zM35.9 214.3H14.6c-.8 0-1.5-.7-1.5-1.5s.7-1.5 1.5-1.5h21.3c.8 0 1.5.7 1.5 1.5s-.7 1.5-1.5 1.5zM74.5 296H38.4c-.8 0-1.5-.7-1.5-1.5s.7-1.5 1.5-1.5h36.2c.8 0 1.5.7 1.5 1.5s-.7 1.5-1.6 1.5zM121.1 296H90.3c-.8 0-1.5-.7-1.5-1.5s.7-1.5 1.5-1.5h30.8c.8 0 1.5.7 1.5 1.5s-.7 1.5-1.5 1.5zM218.7 296h-35.1c-.8 0-1.5-.7-1.5-1.5s.7-1.5 1.5-1.5h35.1c.8 0 1.5.7 1.5 1.5s-.6 1.5-1.5 1.5zM94.7 275.4H70.8c-.8 0-1.5-.7-1.5-1.5s.7-1.5 1.5-1.5h23.8c.8 0 1.5.7 1.5 1.5s-.6 1.5-1.4 1.5zM117.3 275.4h-11c-.8 0-1.5-.7-1.5-1.5s.7-1.5 1.5-1.5h11c.8 0 1.5.7 1.5 1.5s-.7 1.5-1.5 1.5zM130.5 377.4h-26.8c-.8 0-1.5-.7-1.5-1.5s.7-1.5 1.5-1.5h26.8c.8 0 1.5.7 1.5 1.5s-.7 1.5-1.5 1.5zM161.8 397.7H153c-.8 0-1.5-.7-1.5-1.5s.7-1.5 1.5-1.5h8.9c.8 0 1.5.7 1.5 1.5s-.8 1.5-1.6 1.5zM53.6 336.6H8.1c-.8 0-1.5-.7-1.5-1.5s.7-1.5 1.5-1.5h45.6c.8 0 1.5.7 1.5 1.5-.1.8-.7 1.5-1.6 1.5zM184.1 336.6h-17.2c-.8 0-1.5-.7-1.5-1.5s.7-1.5 1.5-1.5h17.2c.8 0 1.5.7 1.5 1.5s-.7 1.5-1.5 1.5zM78.5 356.9H58.1c-.8 0-1.5-.7-1.5-1.5s.7-1.5 1.5-1.5h20.4c.8 0 1.5.7 1.5 1.5s-.7 1.5-1.5 1.5zM130.5 356.9H92.7c-.8 0-1.5-.7-1.5-1.5s.7-1.5 1.5-1.5h37.9c.8 0 1.5.7 1.5 1.5s-.8 1.5-1.6 1.5zM181.7 356.9h-24.3c-.8 0-1.5-.7-1.5-1.5s.7-1.5 1.5-1.5h24.3c.8 0 1.5.7 1.5 1.5s-.6 1.5-1.5 1.5zM200.3 356.9h-9c-.8 0-1.5-.7-1.5-1.5s.7-1.5 1.5-1.5h9c.8 0 1.5.7 1.5 1.5s-.7 1.5-1.5 1.5zM119.8 438.5H79.6c-.8 0-1.5-.7-1.5-1.5s.7-1.5 1.5-1.5h40.2c.8 0 1.5.7 1.5 1.5 0 .9-.7 1.5-1.5 1.5zM62.4 438.4h-38c-.8 0-1.5-.7-1.5-1.5s.7-1.5 1.5-1.5h38c.8 0 1.5.7 1.5 1.5s-.7 1.5-1.5 1.5zM70.3 458.8H58.7c-.8 0-1.5-.7-1.5-1.5s.7-1.5 1.5-1.5h11.6c.8 0 1.5.7 1.5 1.5s-.6 1.5-1.5 1.5zM206.3 458.8h-23.1c-.8 0-1.5-.7-1.5-1.5s.7-1.5 1.5-1.5h23.1c.8 0 1.5.7 1.5 1.5 0 .9-.7 1.5-1.5 1.5zM81 418H64.7c-.8 0-1.5-.7-1.5-1.5s.7-1.5 1.5-1.5H81c.8 0 1.5.7 1.5 1.5s-.7 1.5-1.5 1.5zM104.6 418h-8.8c-.8 0-1.5-.7-1.5-1.5s.7-1.5 1.5-1.5h8.8c.8 0 1.5.7 1.5 1.5s-.6 1.5-1.5 1.5zM137.6 645.4c-.8 0-1.5-.7-1.5-1.5v-5c0-9.5-7.8-17.2-17.3-17.2l-21.4.1c-11.2.1-20.3-9-20.4-20.2l-.2-57v-5.7c0-10.4-8.4-18.8-18.8-18.9H27.3c-.8 0-1.5-.7-1.5-1.5s.7-1.5 1.5-1.5h30.8c12.1 0 21.8 9.8 21.8 21.9v5.7l.2 57c0 9.5 7.7 17.2 17.3 17.2l21.4-.1c11.2 0 20.3 9.1 20.3 20.2v5c0 .9-.7 1.6-1.5 1.5zM112.9 520H84.1c-.8 0-1.5-.7-1.5-1.5s.7-1.5 1.5-1.5h28.7c.8 0 1.5.7 1.5 1.5s-.6 1.5-1.4 1.5zM191.2 520h-63c-.8 0-1.5-.7-1.5-1.5s.7-1.5 1.5-1.5h63c.8 0 1.5.7 1.5 1.5s-.7 1.5-1.5 1.5z"/><path class="st0" d="M64.7 540.3H51.3c-.8 0-1.5-.7-1.5-1.5s.7-1.5 1.5-1.5h13.5c.8 0 1.5.7 1.5 1.5s-.7 1.5-1.6 1.5zM150.6 479.2h-40.2c-.8 0-1.5-.7-1.5-1.5s.7-1.5 1.5-1.5h40.2c.8 0 1.5.7 1.5 1.5s-.7 1.5-1.5 1.5zM41 499.5H8.1c-.8 0-1.5-.7-1.5-1.5s.7-1.5 1.5-1.5H41c.8 0 1.5.7 1.5 1.5s-.7 1.5-1.5 1.5zM133.1 499.5H98.3c-.8 0-1.5-.7-1.5-1.5s.7-1.5 1.5-1.5H133c.8 0 1.5.7 1.5 1.5s-.6 1.5-1.4 1.5zM153.9 499.5h-6.7c-.8 0-1.5-.7-1.5-1.5s.7-1.5 1.5-1.5h6.7c.8 0 1.5.7 1.5 1.5s-.7 1.5-1.5 1.5zM158.9 581.1h-32.6c-.8 0-1.5-.7-1.5-1.5s.7-1.5 1.5-1.5h32.6c.8 0 1.5.7 1.5 1.5s-.7 1.5-1.5 1.5zM184.9 581.1h-13.5c-.8 0-1.5-.7-1.5-1.5s.7-1.5 1.5-1.5h13.5c.8 0 1.5.7 1.5 1.5s-.6 1.5-1.5 1.5zM141.9 601.4H97.8c-.8 0-1.5-.7-1.5-1.5s.7-1.5 1.5-1.5h44.1c.8 0 1.5.7 1.5 1.5s-.7 1.5-1.5 1.5zM34.6 560.6H1.5c-.8 0-1.5-.7-1.5-1.5s.7-1.5 1.5-1.5h33.1c.8 0 1.5.7 1.5 1.5s-.7 1.5-1.5 1.5zM131.1 560.6h-19.6c-.8 0-1.5-.7-1.5-1.5s.7-1.5 1.5-1.5h19.6c.8 0 1.5.7 1.5 1.5s-.7 1.5-1.5 1.5zM166.9 560.6h-22.1c-.8 0-1.5-.7-1.5-1.5s.7-1.5 1.5-1.5h22.1c.8 0 1.5.7 1.5 1.5s-.7 1.5-1.5 1.5zM1338.1 92.3h-51.7c-.8 0-1.5-.7-1.5-1.5s.7-1.5 1.5-1.5h51.7c.8 0 1.5.7 1.5 1.5s-.7 1.5-1.5 1.5zM1274.7 92.3h-31.3c-.8 0-1.5-.7-1.5-1.5s.7-1.5 1.5-1.5h31.3c.8 0 1.5.7 1.5 1.5s-.6 1.5-1.5 1.5zM1195 92.3h-28.3c-.8 0-1.5-.7-1.5-1.5s.7-1.5 1.5-1.5h28.3c.8 0 1.5.7 1.5 1.5s-.7 1.5-1.5 1.5zM1446 92.3h-24.9c-.8 0-1.5-.7-1.5-1.5s.7-1.5 1.5-1.5h24.9c.8 0 1.5.7 1.5 1.5s-.7 1.5-1.5 1.5zM1288.1 112.6h-15.6c-.8 0-1.5-.7-1.5-1.5s.7-1.5 1.5-1.5h15.6c.8 0 1.5.7 1.5 1.5s-.7 1.5-1.5 1.5zM1374.6 51.4H1311c-.8 0-1.5-.7-1.5-1.5s.7-1.5 1.5-1.5h63.6c.8 0 1.5.7 1.5 1.5 0 .9-.6 1.5-1.5 1.5zM1195.3 51.4h-15.4c-.8 0-1.5-.7-1.5-1.5s.7-1.5 1.5-1.5h15.4c.8 0 1.5.7 1.5 1.5s-.6 1.5-1.5 1.5zM1166.6 51.4h-96.8c-.8 0-1.5-.7-1.5-1.5s.7-1.5 1.5-1.5h96.8c.8 0 1.5.7 1.5 1.5s-.6 1.5-1.5 1.5zM1400.6 51.4h-12.9c-.8 0-1.5-.7-1.5-1.5s.7-1.5 1.5-1.5h12.9c.8 0 1.5.7 1.5 1.5s-.6 1.5-1.5 1.5zM1139.3 71.7h-22.2c-.8 0-1.5-.7-1.5-1.5s.7-1.5 1.5-1.5h22.3c.8 0 1.5.7 1.5 1.5s-.8 1.5-1.6 1.5zM1352.2 71.7h-29.1c-.8 0-1.5-.7-1.5-1.5s.7-1.5 1.5-1.5h29.1c.8 0 1.5.7 1.5 1.5s-.7 1.5-1.5 1.5zM1322.5 31.1h-30.6c-.8 0-1.5-.7-1.5-1.5s.7-1.5 1.5-1.5h30.6c.8 0 1.5.7 1.5 1.5s-.7 1.5-1.5 1.5zM1149.9 31.1h-37.3c-.8 0-1.5-.7-1.5-1.5s.7-1.5 1.5-1.5h37.3c.8 0 1.5.7 1.5 1.5s-.7 1.5-1.5 1.5zM1095.1 31.1h-114c-.8 0-1.5-.7-1.5-1.5s.7-1.5 1.5-1.5h114c.8 0 1.5.7 1.5 1.5s-.7 1.5-1.5 1.5zM398.8 31.1h-78.7c-.8 0-1.5-.7-1.5-1.5s.7-1.5 1.5-1.5h78.7c.8 0 1.5.7 1.5 1.5s-.7 1.5-1.5 1.5zM454.5 31.1h-41.8c-.8 0-1.5-.7-1.5-1.5s.7-1.5 1.5-1.5h41.8c.8 0 1.5.7 1.5 1.5s-.7 1.5-1.5 1.5zM1332.1 153.4h-9.1c-.8 0-1.5-.7-1.5-1.5s.7-1.5 1.5-1.5h9.1c.8 0 1.5.7 1.5 1.5s-.6 1.5-1.5 1.5zM1384 153.4h-35.3c-.8 0-1.5-.7-1.5-1.5s.7-1.5 1.5-1.5h35.3c.8 0 1.5.7 1.5 1.5s-.7 1.5-1.5 1.5zM1290.4 173.7h-23.8c-.8 0-1.5-.7-1.5-1.5s.7-1.5 1.5-1.5h23.8c.8 0 1.5.7 1.5 1.5s-.6 1.5-1.5 1.5zM1418.4 173.7h-34.3c-.8 0-1.5-.7-1.5-1.5s.7-1.5 1.5-1.5h34.3c.8 0 1.5.7 1.5 1.5s-.7 1.5-1.5 1.5zM1377.7 132.9h-18.4c-.8 0-1.5-.7-1.5-1.5s.7-1.5 1.5-1.5h18.4c.8 0 1.5.7 1.5 1.5s-.6 1.5-1.5 1.5zM1259.5 234.8h-12.4c-.8 0-1.5-.7-1.5-1.5s.7-1.5 1.5-1.5h12.4c.8 0 1.5.7 1.5 1.5s-.7 1.5-1.5 1.5zM1296.8 234.8h-24.2c-.8 0-1.5-.7-1.5-1.5s.7-1.5 1.5-1.5h24.2c.8 0 1.5.7 1.5 1.5s-.6 1.5-1.5 1.5zM1337.3 234.8h-14.2c-.8 0-1.5-.7-1.5-1.5s.7-1.5 1.5-1.5h14.2c.8 0 1.5.7 1.5 1.5s-.7 1.5-1.5 1.5zM1389.6 234.8h-37.5c-.8 0-1.5-.7-1.5-1.5s.7-1.5 1.5-1.5h37.5c.8 0 1.5.7 1.5 1.5s-.6 1.5-1.5 1.5zM1445 234.8h-20.1c-.8 0-1.5-.7-1.5-1.5s.7-1.5 1.5-1.5h20.1c.8 0 1.5.7 1.5 1.5s-.7 1.5-1.5 1.5zM1401.6 194h-42.3c-.8 0-1.5-.7-1.5-1.5s.7-1.5 1.5-1.5h42.3c.8 0 1.5.7 1.5 1.5s-.7 1.5-1.5 1.5zM1351.2 214.3h-28.7c-.8 0-1.5-.7-1.5-1.5s.7-1.5 1.5-1.5h28.7c.8 0 1.5.7 1.5 1.5s-.7 1.5-1.5 1.5zM1377.7 214.3h-10.6c-.8 0-1.5-.7-1.5-1.5s.7-1.5 1.5-1.5h10.6c.8 0 1.5.7 1.5 1.5s-.6 1.5-1.5 1.5zM1280.2 296.4h-27.1c-.8 0-1.5-.7-1.5-1.5s.7-1.5 1.5-1.5h27.1c.8 0 1.5.7 1.5 1.5s-.7 1.5-1.5 1.5zM1322.5 296.4h-26.2c-.8 0-1.5-.7-1.5-1.5s.7-1.5 1.5-1.5h26.2c.8 0 1.5.7 1.5 1.5s-.7 1.5-1.5 1.5zM1389.6 296.4h-49.4c-.8 0-1.5-.7-1.5-1.5s.7-1.5 1.5-1.5h49.4c.8 0 1.5.7 1.5 1.5s-.6 1.5-1.5 1.5zM1262.7 316.3h-29c-.8 0-1.5-.7-1.5-1.5s.7-1.5 1.5-1.5h29c.8 0 1.5.7 1.5 1.5s-.7 1.5-1.5 1.5zM1442.5 336.5h-24.2c-.8 0-1.5-.7-1.5-1.5s.7-1.5 1.5-1.5h24.2c.8 0 1.5.7 1.5 1.5s-.6 1.5-1.5 1.5zM1305.3 275.4h-15.2c-.8 0-1.5-.7-1.5-1.5s.7-1.5 1.5-1.5h15.2c.8 0 1.5.6 1.5 1.5s-.7 1.5-1.5 1.5zM1350.5 275.4h-28.9c-.8 0-1.5-.7-1.5-1.5s.7-1.5 1.5-1.5h28.9c.8 0 1.5.7 1.5 1.5s-.7 1.5-1.5 1.5zM1447.8 275.4h-29.5c-.8 0-1.5-.7-1.5-1.5s.7-1.5 1.5-1.5h29.5c.8 0 1.5.7 1.5 1.5s-.7 1.5-1.5 1.5zM1339.6 377.4h-42.4c-.8 0-1.5-.7-1.5-1.5s.7-1.5 1.5-1.5h42.4c.8 0 1.5.7 1.5 1.5s-.7 1.5-1.5 1.5zM1374.8 377.4h-20.7c-.8 0-1.5-.7-1.5-1.5s.7-1.5 1.5-1.5h20.7c.8 0 1.5.7 1.5 1.5s-.7 1.5-1.5 1.5zM1441.1 397.7h-22.8c-.8 0-1.5-.7-1.5-1.5s.7-1.5 1.5-1.5h22.8c.8 0 1.5.7 1.5 1.5s-.6 1.5-1.5 1.5zM1388.6 336.6h-30.3c-.8 0-1.5-.7-1.5-1.5s.7-1.5 1.5-1.5h30.3c.8 0 1.5.7 1.5 1.5s-.6 1.5-1.5 1.5zM1320.6 356.9h-9.2c-.8 0-1.5-.7-1.5-1.5s.7-1.5 1.5-1.5h9.2c.8 0 1.5.7 1.5 1.5s-.6 1.5-1.5 1.5zM1354.1 356.9H1333c-.8 0-1.5-.7-1.5-1.5s.7-1.5 1.5-1.5h21.1c.8 0 1.5.7 1.5 1.5s-.7 1.5-1.5 1.5zM1442.3 356.9h-23.9c-.8 0-1.5-.7-1.5-1.5s.7-1.5 1.5-1.5h23.9c.8 0 1.5.7 1.5 1.5s-.7 1.5-1.5 1.5zM1388.9 438.5h-51.3c-.8 0-1.5-.7-1.5-1.5s.7-1.5 1.5-1.5h51.3c.8 0 1.5.7 1.5 1.5s-.6 1.5-1.5 1.5zM1393.5 458.8h-27.1c-.8 0-1.5-.7-1.5-1.5s.7-1.5 1.5-1.5h27.1c.8 0 1.5.7 1.5 1.5s-.7 1.5-1.5 1.5zM1351.9 418h-41.8c-.8 0-1.5-.7-1.5-1.5s.7-1.5 1.5-1.5h41.8c.8 0 1.5.7 1.5 1.5s-.7 1.5-1.5 1.5zM1388.9 418h-12.6c-.8 0-1.5-.7-1.5-1.5s.7-1.5 1.5-1.5h12.6c.8 0 1.5.7 1.5 1.5s-.6 1.5-1.5 1.5zM1320.8 520h-46c-.8 0-1.5-.7-1.5-1.5s.7-1.5 1.5-1.5h46c.8 0 1.5.7 1.5 1.5s-.7 1.5-1.5 1.5zM1392 520h-57.6c-.8 0-1.5-.7-1.5-1.5s.7-1.5 1.5-1.5h57.6c.8 0 1.5.7 1.5 1.5s-.7 1.5-1.5 1.5zM1322.7 540.3h-29.6c-.8 0-1.5-.7-1.5-1.5s.7-1.5 1.5-1.5h29.6c.8 0 1.5.7 1.5 1.5s-.7 1.5-1.5 1.5zM1299.5 479.2h-14.1c-.8 0-1.5-.7-1.5-1.5s.7-1.5 1.5-1.5h14.1c.8 0 1.5.7 1.5 1.5s-.7 1.5-1.5 1.5zM1443.9 479.2h-22.8c-.8 0-1.5-.7-1.5-1.5s.7-1.5 1.5-1.5h22.9c.8 0 1.5.7 1.5 1.5-.1.8-.8 1.5-1.6 1.5zM1324.7 499.5h-33.6c-.8 0-1.5-.7-1.5-1.5s.7-1.5 1.5-1.5h33.6c.8 0 1.5.7 1.5 1.5s-.7 1.5-1.5 1.5zM1359.3 499.5H1345c-.8 0-1.5-.7-1.5-1.5s.7-1.5 1.5-1.5h14.3c.8 0 1.5.7 1.5 1.5s-.7 1.5-1.5 1.5zM1407.4 601.4h-35.6c-.8 0-1.5-.7-1.5-1.5s.7-1.5 1.5-1.5h35.6c.8 0 1.5.7 1.5 1.5s-.7 1.5-1.5 1.5zM1441.4 601.4h-19.2c-.8 0-1.5-.7-1.5-1.5s.7-1.5 1.5-1.5h19.2c.8 0 1.5.7 1.5 1.5s-.7 1.5-1.5 1.5zM1386.3 642h-65.9c-.8 0-1.5-.7-1.5-1.5s.7-1.5 1.5-1.5h65.9c.8 0 1.5.7 1.5 1.5s-.7 1.5-1.5 1.5zM64.5 621.7H44.7c-.8 0-1.5-.7-1.5-1.5s.7-1.5 1.5-1.5h19.8c.8 0 1.5.7 1.5 1.5s-.7 1.5-1.5 1.5zM97.8 642h-72c-.8 0-1.5-.7-1.5-1.5s.7-1.5 1.5-1.5h72c.8 0 1.5.7 1.5 1.5s-.6 1.5-1.5 1.5zM1325.5 560.6h-13.3c-.8 0-1.5-.7-1.5-1.5s.7-1.5 1.5-1.5h13.3c.8 0 1.5.7 1.5 1.5s-.6 1.5-1.5 1.5z"/><path class="st0" d="M1333.4 621.7H1303c-.8 0-1.5-.7-1.5-1.5s.7-1.5 1.5-1.5h30.4c9.5 0 17.3-7.7 17.3-17.3v-23.6c0-11.2 9.1-20.3 20.3-20.3h71.3c.8 0 1.5.7 1.5 1.5s-.7 1.5-1.5 1.5H1371c-9.5 0-17.3 7.7-17.3 17.3v23.6c0 11.2-9.1 20.3-20.3 20.3zM146.6 71.8c-12.1 0-21.9-9.8-21.9-21.9 0-.8.7-1.5 1.5-1.5s1.5.7 1.5 1.5c0 10.4 8.5 18.9 18.9 18.9h91.9c9.5 0 17.3-7.7 17.3-17.3v-50c0-.8.7-1.5 1.5-1.5s1.5.7 1.5 1.5v50c0 11.2-9.1 20.3-20.3 20.3h-91.9zM190.5 586.1c-3.6 0-6.5-2.9-6.5-6.5s2.9-6.5 6.5-6.5 6.5 2.9 6.5 6.5-2.9 6.5-6.5 6.5zm0-10c-1.9 0-3.5 1.6-3.5 3.5s1.6 3.5 3.5 3.5 3.5-1.6 3.5-3.5-1.5-3.5-3.5-3.5zM56.4 402.7c-3.6 0-6.5-2.9-6.5-6.5s2.9-6.5 6.5-6.5 6.5 2.9 6.5 6.5-2.9 6.5-6.5 6.5zm0-10c-1.9 0-3.5 1.6-3.5 3.5s1.6 3.5 3.5 3.5 3.5-1.6 3.5-3.5-1.5-3.5-3.5-3.5zM143.2 219.3c-3.6 0-6.5-2.9-6.5-6.5s2.9-6.5 6.5-6.5 6.5 2.9 6.5 6.5-2.9 6.5-6.5 6.5zm0-10c-1.9 0-3.5 1.6-3.5 3.5s1.6 3.5 3.5 3.5 3.5-1.6 3.5-3.5-1.6-3.5-3.5-3.5zM104.5 295.9c-.4 0-.8-.2-1.1-.4L83 275.1c-.6-.6-.5-1.6.1-2.1s1.5-.5 2 0l20.4 20.4c.6.6.5 1.6-.1 2.1-.2.2-.6.4-.9.4zM341.5 51.2c-.8 0-1.5-.7-1.5-1.5 0-.4.2-.8.4-1.1l20.1-20.1c.6-.6 1.6-.5 2.1.1s.5 1.5 0 2l-20.1 20.1c-.2.4-.6.5-1 .5zM1358.3 295.7c-.4 0-.8-.2-1.1-.4l-20.2-20.2c-.6-.6-.5-1.6.1-2.1s1.5-.5 2 0l20.2 20.2c.6.6.6 1.5 0 2.1-.2.2-.6.4-1 .4zM1316.4 92c-.8 0-1.5-.7-1.5-1.5 0-.4.2-.8.4-1.1l20.2-20.2c.6-.6 1.6-.5 2.1.1s.5 1.5 0 2l-20.2 20.2c-.2.3-.6.4-1 .5zM1292.9 519.8c-.8 0-1.5-.7-1.5-1.5 0-.4.2-.8.4-1.1l20.3-20.2c.6-.6 1.6-.5 2.1.1s.5 1.5 0 2l-20.2 20.2c-.3.4-.7.6-1.1.5zM121.9 601.3c-.8 0-1.5-.7-1.5-1.5 0-.4.2-.8.4-1.1l20.3-20.2c.6-.6 1.5-.6 2.1-.1.6.6.6 1.5.1 2.1l-.1.1-20.2 20.3c-.3.3-.7.5-1.1.4z"/><path class="st0" d="M123.4 397.7h-62c-.8 0-1.5-.7-1.5-1.5s.7-1.5 1.5-1.5h62c9.4.1 17.1-7.4 17.2-16.8v-.3l.2-44.1c0-11.2 9.1-20.2 20.3-20.2H178c10.4 0 18.8-8.4 18.9-18.8 0-.8.7-1.5 1.5-1.5s1.5.7 1.5 1.5c0 12-9.8 21.8-21.9 21.8h-16.9c-9.5 0-17.3 7.7-17.3 17.2l-.2 44.1c0 11.1-9 20.1-20.2 20.1zM102.1 499.5c-.8 0-1.5-.7-1.5-1.5s.7-1.5 1.5-1.5c10.3 0 18.6-8.4 18.6-18.7 0-.8.7-1.5 1.5-1.5s1.5.7 1.5 1.5c0 11.9-9.6 21.6-21.6 21.7zM315.1 36.1c-3.6 0-6.5-2.9-6.5-6.5s2.9-6.5 6.5-6.5 6.5 2.9 6.5 6.5-2.9 6.5-6.5 6.5zm0-10c-1.9 0-3.5 1.6-3.5 3.5s1.6 3.5 3.5 3.5 3.5-1.6 3.5-3.5-1.6-3.5-3.5-3.5zM1382.8 137.9c-3.6 0-6.5-2.9-6.5-6.5s2.9-6.5 6.5-6.5 6.5 2.9 6.5 6.5-3 6.5-6.5 6.5zm0-10c-1.9 0-3.5 1.6-3.5 3.5s1.6 3.5 3.5 3.5 3.5-1.6 3.5-3.5c0-2-1.6-3.5-3.5-3.5zM1371.3 423c-3.6 0-6.5-2.9-6.5-6.5s2.9-6.5 6.5-6.5 6.5 2.9 6.5 6.5-2.9 6.5-6.5 6.5zm0-10c-1.9 0-3.5 1.6-3.5 3.5s1.6 3.5 3.5 3.5 3.5-1.6 3.5-3.5-1.6-3.5-3.5-3.5zM1297.8 626.7c-3.6 0-6.5-2.9-6.5-6.5s2.9-6.5 6.5-6.5 6.5 2.9 6.5 6.5-2.9 6.5-6.5 6.5zm0-10c-1.9 0-3.5 1.6-3.5 3.5s1.6 3.5 3.5 3.5 3.5-1.6 3.5-3.5c.1-1.9-1.5-3.5-3.5-3.5zM1374.1 194c-.8 0-1.5-.7-1.5-1.5s.7-1.5 1.5-1.5c10.3 0 18.7-8.4 18.7-18.7 0-.8.7-1.5 1.5-1.5s1.5.7 1.5 1.5c0 12-9.7 21.7-21.7 21.7zM1129.1 71.7c-.8 0-1.5-.7-1.5-1.5 0-12 9.7-21.7 21.8-21.8.8 0 1.5.7 1.5 1.5s-.7 1.5-1.5 1.5c-10.4 0-18.7 8.4-18.8 18.8 0 .8-.7 1.5-1.5 1.5zM1330.9 49.9c-.8 0-1.5-.7-1.5-1.5 0-11.2 9.1-20.2 20.3-20.2h94c.8 0 1.5.7 1.5 1.5s-.7 1.5-1.5 1.5h-94c-9.5 0-17.3 7.7-17.3 17.2-.1.8-.7 1.4-1.5 1.5zM1442.5 458.8H1422c-11.2 0-20.3-9.1-20.3-20.3v-82.2c0-.8.7-1.5 1.5-1.5s1.5.7 1.5 1.5v82.2c0 9.5 7.7 17.3 17.3 17.3h20.5c.8 0 1.5.7 1.5 1.5 0 .9-.6 1.5-1.5 1.5zM1310.2 172.9c-.8 0-1.5-.7-1.5-1.5 0-9.5-7.7-17.2-17.3-17.2l-61.8.1c-11.2 0-20.2-9.1-20.3-20.2L1209 5.6c0-.8.7-1.5 1.5-1.5s1.5.7 1.5 1.5l.2 128.5c0 9.5 7.8 17.2 17.3 17.2l61.8-.1c11.2 0 20.2 9.1 20.3 20.2 0 .8-.7 1.5-1.4 1.5z"/><path class="st0" d="M1403.3 364.9c-.8 0-1.5-.7-1.5-1.5v-91.1c0-9.5-7.7-17.3-17.3-17.3h-55.6c-11.2 0-20.3-9.1-20.3-20.3v-7.3l.2-97.7c0-11.2 9.1-20.2 20.3-20.2l120.5.1c.8 0 1.5.7 1.5 1.5s-.7 1.5-1.5 1.5l-120.5-.1c-9.5 0-17.3 7.7-17.3 17.2l-.2 104.9c0 9.5 7.7 17.3 17.3 17.3h55.6c11.2 0 20.3 9.1 20.3 20.3v91.1c-.1.9-.7 1.6-1.5 1.6zM189.5 214.2c-.8 0-1.5-.7-1.5-1.5 0-10.3-8.4-18.7-18.7-18.7-.8 0-1.5-.7-1.5-1.5s.7-1.5 1.5-1.5c12 0 21.7 9.7 21.7 21.7 0 .9-.7 1.5-1.5 1.5z"/></svg>